<?xml version="1.0" encoding="utf-8"?>
<!-- Generator: Adobe Illustrator 23.0.3, SVG Export Plug-In . SVG Version: 6.00 Build 0)  -->
<svg version="1.1" id="Layer_1" xmlns="http://www.w3.org/2000/svg" xmlns:xlink="http://www.w3.org/1999/xlink" x="0px" y="0px"
	 viewBox="0 0 2500 708" style="enable-background:new 0 0 2500 708;" xml:space="preserve">
<style type="text/css">
	.st0{fill:#83CD29;}
	.st1{fill:#D2D2DA;}
</style>
<g>
	<path class="st0" d="M2300,252c-6.1,0-12,1.3-17.2,4.2l-165.5,95.6c-10.7,6.2-17.2,17.8-17.2,30.2v190.8c0,12.4,6.5,24,17.2,30.2
		l43.2,24.9c21,10.3,28.7,10.2,38.3,10.2c31.1,0,48.8-18.9,48.8-51.6V398.1c0-2.7-2.3-4.6-4.9-4.6H2222c-2.7,0-4.9,1.9-4.9,4.6
		v188.3c0,14.5-15.1,29.1-39.7,16.9l-45-26.3c-1.6-0.9-2.8-2.4-2.8-4.2V382c0-1.8,1.2-3.6,2.8-4.6l165.1-95.2c1.5-0.9,3.4-0.9,4.9,0
		l165.1,95.2c1.6,0.9,2.8,2.7,2.8,4.6v190.8c0,1.8-0.9,3.7-2.5,4.6l-165.5,95.2c-1.4,0.8-3.4,0.8-4.9,0l-42.5-25.3
		c-1.3-0.7-2.9-0.7-4.2,0c-11.7,6.7-13.9,7.4-24.9,11.2c-2.7,0.9-6.8,2.4,1.4,7l55.5,32.7c5.2,3,11.2,4.6,17.2,4.6
		c6,0,12-1.5,17.2-4.6l165.5-95.2c10.7-6.2,17.2-17.8,17.2-30.2V382c0-12.4-6.5-24-17.2-30.2l-165.5-95.6
		C2312.1,253.3,2306.1,252,2300,252L2300,252z"/>
	<path class="st0" d="M2344.3,388.3c-47.1,0-75.2,20.1-75.2,53.4c0,36.2,27.9,46.1,73.1,50.6c54.1,5.3,58.3,13.2,58.3,23.9
		c0,18.5-14.7,26.3-49.5,26.3c-43.7,0-53.3-10.9-56.6-32.7c-0.4-2.3-2.2-4.2-4.6-4.2h-21.4c-2.6,0-4.9,2.3-4.9,4.9
		c0,27.8,15.1,60.8,87.5,60.8c52.4,0,82.6-20.6,82.6-56.6c0-35.7-24.4-45.3-75.2-52c-51.3-6.8-56.2-10.1-56.2-22.1
		c0-9.9,4.2-23.2,42.2-23.2c34,0,46.5,7.3,51.6,30.2c0.4,2.1,2.3,3.9,4.6,3.9h21.4c1.3,0,2.6-0.8,3.5-1.8c0.9-1,1.5-2.1,1.4-3.5
		C2423.5,406.9,2397.2,388.3,2344.3,388.3L2344.3,388.3z"/>
</g>
<path class="st1" d="M1327.2,1.9c-1.8,0-3.7,0.5-5.3,1.4c-3.2,1.9-5.3,5.4-5.3,9.1v268.8c0,2.6-1.2,5-3.5,6.3
	c-2.3,1.3-5.1,1.3-7.4,0l-43.9-25.3c-6.5-3.8-14.6-3.8-21.1,0l-175.3,101.2c-6.6,3.8-10.5,11.1-10.5,18.6v202.4
	c0,7.6,4,14.5,10.5,18.3l175.3,101.2c6.5,3.8,14.6,3.8,21.1,0l175.3-101.2c6.5-3.8,10.6-10.7,10.5-18.3V79.9
	c0-7.7-4.2-14.8-10.9-18.6L1332.5,2.9C1330.9,2,1329.1,1.8,1327.2,1.9L1327.2,1.9z M199.5,254.5c-3.3,0.1-6.5,0.7-9.5,2.5
	L14.7,358.1c-6.5,3.8-10.6,10.7-10.5,18.3l0.4,271.6c0,3.8,1.9,7.3,5.3,9.1c3.2,1.9,7.3,1.9,10.5,0l104-59.7
	c6.6-3.9,10.9-10.7,10.9-18.3V452.3c0-7.6,4-14.5,10.5-18.3l44.3-25.6c3.2-1.9,6.8-2.8,10.5-2.8c3.6,0,7.3,0.9,10.5,2.8l44.3,25.6
	c6.5,3.8,10.6,10.7,10.5,18.3v126.8c0,7.5,4.3,14.4,10.9,18.3l104,59.7c3.2,1.9,7.3,1.9,10.5,0c3.3-1.9,5.3-5.4,5.3-9.1l0.3-271.6
	c0-7.5-4-14.5-10.5-18.3L211.1,256.9c-3-1.7-6.1-2.3-9.5-2.5H199.5z M1774.8,256.9c-3.7,0-7.3,0.9-10.5,2.8L1589,360.9
	c-6.5,3.8-10.6,10.7-10.5,18.3v202.4c0,7.6,4.3,14.5,10.9,18.3l173.9,99.1c6.4,3.7,14.3,3.9,20.7,0.3l105.4-58.7
	c3.3-1.9,5.6-5.3,5.6-9.1c0-3.8-2-7.3-5.3-9.1l-176.4-101.2c-3.3-1.9-5.6-5.7-5.6-9.5v-63.2c0-3.8,2.3-7.3,5.6-9.1l54.8-31.6
	c3.3-1.9,7.3-1.9,10.5,0l54.8,31.6c3.3,1.9,5.3,5.4,5.3,9.1v49.9c0,3.8,2,7.3,5.3,9.1c3.3,1.9,7.3,1.9,10.5,0l105-61.1
	c6.5-3.8,10.5-10.7,10.5-18.3v-48.8c0-7.5-4-14.5-10.5-18.3l-174.3-101.2C1782.1,257.9,1778.5,256.9,1774.8,256.9L1774.8,256.9z
	 M1250.6,408c0.9,0,2,0.2,2.8,0.7l60.1,34.8c1.6,0.9,2.8,2.7,2.8,4.6v69.6c0,1.9-1.2,3.6-2.8,4.6l-60.1,34.8c-1.6,0.9-3.6,0.9-5.3,0
	l-60.1-34.8c-1.6-0.9-2.8-2.7-2.8-4.6V448c0-1.9,1.2-3.6,2.8-4.6l60.1-34.8C1248.9,408.2,1249.8,408,1250.6,408L1250.6,408
	L1250.6,408z"/>
<path class="st0" d="M726.1,255.9c-3.7,0-7.3,0.9-10.5,2.8L540.3,359.5c-6.6,3.8-10.5,11.1-10.5,18.6v202.4c0,7.6,4,14.5,10.5,18.3
	l175.3,101.2c6.5,3.8,14.6,3.8,21.1,0L912,598.8c6.5-3.8,10.6-10.7,10.5-18.3V378.1c0-7.6-4-14.8-10.5-18.6L736.7,258.7
	C733.5,256.8,729.8,255.9,726.1,255.9L726.1,255.9z M1774.5,436.4c-0.7,0-1.5,0-2.1,0.4l-33.7,19.7c-1.3,0.7-2.1,2.1-2.1,3.5v38.6
	c0,1.5,0.8,2.8,2.1,3.5l33.7,19.3c1.3,0.7,2.6,0.7,3.9,0l33.7-19.3c1.3-0.7,2.1-2,2.1-3.5V460c0-1.5-0.8-2.8-2.1-3.5l-33.7-19.7
	C1775.6,436.4,1775.2,436.5,1774.5,436.4L1774.5,436.4z"/>
</svg>
